<?xml version="1.0" encoding="UTF-8"?>
<svg version="1.1" xmlns="http://www.w3.org/2000/svg" width="512" height="512">
<path d="M0 0 C0.78375 -0.01546875 1.5675 -0.0309375 2.375 -0.046875 C7.07695265 1.38050348 10.70770008 4.63610191 13.26373291 8.81716919 C14.39947328 11.21120042 15.40807015 13.62587583 16.3828125 16.08984375 C16.94851707 17.45105598 16.94851707 17.45105598 17.52565002 18.83976746 C18.74360718 21.78190328 19.9344665 24.73417424 21.125 27.6875 C21.95888565 29.71737767 22.79459146 31.74650853 23.63208008 33.77490234 C25.30747619 37.83815577 26.97337332 41.9051041 28.63232422 45.97509766 C30.75570184 51.17225775 32.92804646 56.34696036 35.12890625 61.51171875 C35.43822083 62.23920822 35.7475354 62.96669769 36.06622314 63.7162323 C37.21856631 66.42605933 38.37117638 69.13575373 39.52960205 71.84298706 C40.29954366 73.64577224 41.06210081 75.45170599 41.82421875 77.2578125 C42.45976685 78.75272217 42.45976685 78.75272217 43.1081543 80.27783203 C44 82.75 44 82.75 44 85.75 C44.96420868 85.8019754 45.92841736 85.85395081 46.92184448 85.90750122 C56.80459869 86.46680805 66.61207423 87.36884613 76.4453125 88.4921875 C77.95506518 88.66295787 79.46482069 88.83370319 80.97457886 89.00442505 C84.10255705 89.35937856 87.23009565 89.71796382 90.35742188 90.07861328 C94.35270664 90.53857007 98.34947618 90.98399032 102.34675789 91.42620659 C105.44980902 91.77200309 108.55162598 92.12802091 111.65319443 92.48685074 C113.12708064 92.65564078 114.60140024 92.82069276 116.07614517 92.98180771 C118.1317589 93.20739495 120.1852125 93.44740675 122.23876953 93.69091797 C123.98506149 93.88957962 123.98506149 93.88957962 125.76663208 94.09225464 C130.69536277 95.09487786 134.03722204 96.66054073 137.375 100.4375 C139.30727855 104.37637551 139.77434464 107.48694134 139 111.75 C136.58201243 118.0828246 132.25679061 121.24834042 126.99609375 125.36328125 C124.04217605 127.71640213 121.27124566 130.18550438 118.5 132.75 C114.0301488 136.86378909 109.40955107 140.72087297 104.68359375 144.53515625 C102.05291443 146.70632827 99.52057576 148.95241357 97 151.25 C92.769801 155.10477722 88.40140104 158.74076641 83.93359375 162.31640625 C82.96550781 163.11949219 81.99742187 163.92257812 81 164.75 C79.84246468 165.44165253 79.84246468 165.44165253 78.6615448 166.14727783 C75.75001211 168.13894862 73.91984706 169.77276583 72 172.75 C71.64262468 178.57002283 73.02313758 183.90821096 74.3671875 189.54296875 C74.7184211 191.17770259 75.06512522 192.81341559 75.40750122 194.45002747 C76.31924234 198.74796943 77.29145876 203.02996653 78.27716064 207.3114624 C79.26832501 211.66519867 80.20216157 216.03114345 81.140625 220.39648438 C82.79827904 228.07265049 84.5057131 235.73624602 86.24972534 243.39323425 C89.39218008 257.4527314 89.39218008 257.4527314 86.8125 263.5625 C83.49879361 267.56180082 80.98365809 269.99378504 75.6875 270.5625 C67.54876751 270.21283594 60.69599439 264.95059276 54 260.75 C52.79965045 260.00753552 51.59913584 259.2653378 50.3984375 258.5234375 C48.54662734 257.37304399 46.69856954 256.21746561 44.85620117 255.05200195 C36.68182852 249.88125875 28.38989673 244.90213248 20.11035156 239.90234375 C19.53324432 239.55303802 18.95613708 239.2037323 18.36154175 238.84384155 C16.6597394 237.81470263 14.95561651 236.78940415 13.25146484 235.76416016 C11.10730505 234.43593383 8.99133222 233.06093221 6.90869141 231.63818359 C5.95526855 230.9880127 5.0018457 230.3378418 4.01953125 229.66796875 C3.19171143 229.08168701 2.3638916 228.49540527 1.51098633 227.89135742 C-1.80777735 226.38282848 -3.52306709 226.76979633 -7 227.75 C-9.63972754 228.89848642 -9.63972754 228.89848642 -12.2109375 230.41796875 C-13.19618408 230.97444092 -14.18143066 231.53091309 -15.1965332 232.10424805 C-16.24542725 232.70922119 -17.29432129 233.31419434 -18.375 233.9375 C-19.47481201 234.56245361 -20.57462402 235.18740723 -21.70776367 235.83129883 C-30.27178442 240.71254008 -38.77917591 245.69148947 -47.28149414 250.67919922 C-53.91181426 254.5600665 -60.58425463 258.35394572 -67.3125 262.0625 C-68.14885986 262.52487061 -68.98521973 262.98724121 -69.84692383 263.46362305 C-70.61544678 263.88426025 -71.38396973 264.30489746 -72.17578125 264.73828125 C-72.84520752 265.10477783 -73.51463379 265.47127441 -74.2043457 265.84887695 C-79.24598302 268.37894946 -83.84541718 268.42594755 -89.1875 266.75 C-92.91838103 264.09692904 -94.99103283 261.24512269 -96 256.75 C-95.45838823 247.74470303 -93.09447376 239.05924111 -91 230.31640625 C-90.59986338 228.63021604 -90.20013032 226.94393001 -89.80078125 225.2575531 C-88.96684902 221.74097399 -88.12936528 218.22526724 -87.2890625 214.71020508 C-86.21095032 210.19990478 -85.13981336 205.68798424 -84.07104492 201.17546177 C-83.24782301 197.70153149 -82.42197524 194.22823001 -81.59521484 190.7551403 C-81.19911962 189.09065418 -80.80360964 187.42602867 -80.40869141 185.76126289 C-79.85831761 183.44382795 -79.30465948 181.1272034 -78.75 178.81079102 C-78.50527954 177.77680176 -78.50527954 177.77680176 -78.25561523 176.72192383 C-77.11452093 171.97904185 -77.11452093 171.97904185 -76 169.75 C-76.58265625 169.49605469 -77.1653125 169.24210938 -77.765625 168.98046875 C-80.24188033 167.61679667 -81.80520626 166.10774797 -83.75 164.0625 C-86.27703646 161.47078619 -88.81300884 158.97913949 -91.5625 156.625 C-95.60354396 153.1498616 -99.48797237 149.52002059 -103.375 145.875 C-108.35409917 141.208049 -113.36606991 136.58816539 -118.45703125 132.04296875 C-122.1580672 128.70578273 -125.80640031 125.31181649 -129.44775391 121.90966797 C-131.83406387 119.69237903 -134.20894205 117.5857892 -136.7734375 115.5703125 C-140.60575534 112.43722459 -141.82167536 109.1511222 -142.4375 104.3125 C-141.9232626 100.1251383 -140.89602899 96.87833079 -138 93.75 C-133.10819032 90.8072785 -128.97890592 90.1548714 -123.42431641 89.7668457 C-122.58463318 89.69813263 -121.74494995 89.62941956 -120.87982178 89.55862427 C-118.12119834 89.33582631 -115.36156623 89.13070612 -112.6015625 88.92578125 C-110.68191024 88.77421789 -108.76234505 88.62154804 -106.84286499 88.46781921 C-101.80328472 88.06718675 -96.76266533 87.68155795 -91.72167969 87.29907227 C-86.57285384 86.90572535 -81.42515587 86.49815838 -76.27734375 86.09179688 C-66.18594735 85.29729906 -56.09339565 84.51865171 -46 83.75 C-45.82426956 83.19176544 -45.64853912 82.63353088 -45.46748352 82.05838013 C-43.77689735 76.82114854 -41.8175024 71.84588516 -39.48046875 66.8671875 C-39.14520676 66.14202438 -38.80994476 65.41686127 -38.46452332 64.66972351 C-37.3768614 62.31927866 -36.28261938 59.97197851 -35.1875 57.625 C-33.65000531 54.32009289 -32.11517707 51.01395792 -30.58203125 47.70703125 C-30.19623901 46.87572189 -29.81044678 46.04441254 -29.41296387 45.18791199 C-26.87541217 39.70032633 -24.41847286 34.18276914 -22.01171875 28.63671875 C-21.39000466 27.21553729 -20.76802207 25.79447325 -20.14575195 24.37353516 C-19.26696555 22.36640573 -18.39416256 20.35785123 -17.54135132 18.33953857 C-9.7065762 -0.19157716 -9.7065762 -0.19157716 0 0 Z M-1 47.75 C-2.92924001 51.85213227 -4.85688555 55.95500952 -6.78329468 60.05847168 C-7.46814258 61.51674588 -8.15338284 62.97483587 -8.83901978 64.43273926 C-12.37811921 71.95894129 -15.90168325 79.48923612 -19.3046875 87.078125 C-19.79606201 88.17060547 -20.28743652 89.26308594 -20.79370117 90.38867188 C-21.70268213 92.41775812 -22.60425438 94.45018444 -23.49731445 96.48632812 C-23.90425537 97.39318359 -24.31119629 98.30003906 -24.73046875 99.234375 C-25.07489014 100.01522461 -25.41931152 100.79607422 -25.77416992 101.60058594 C-27.59773901 104.79809684 -29.21047159 107.10270171 -32.79141235 108.39797974 C-39.51779046 110.04906394 -46.46436632 110.47109283 -53.34765625 111.0390625 C-54.60009628 111.14721283 -55.85253632 111.25536316 -57.14292908 111.36679077 C-60.44194301 111.65058273 -63.74134042 111.92916377 -67.04101562 112.20513916 C-70.42030203 112.48909309 -73.7989883 112.78001228 -77.17773438 113.0703125 C-83.78462673 113.63656808 -90.39207368 114.19594795 -97 114.75 C-96.21536377 115.53391113 -95.43072754 116.31782227 -94.62231445 117.12548828 C-93.09026965 118.6588168 -91.56195127 120.19591787 -90.04296875 121.7421875 C-86.31068246 125.52947591 -82.48714693 129.11238449 -78.45703125 132.578125 C-74.44503185 136.12450284 -70.55856561 139.80549843 -66.65917969 143.47485352 C-63.76947053 146.18858214 -60.87647985 148.88583163 -57.87890625 151.48046875 C-56.99074219 152.25003906 -56.10257813 153.01960938 -55.1875 153.8125 C-54.41792969 154.46347656 -53.64835937 155.11445313 -52.85546875 155.78515625 C-50.18530096 158.61272341 -49.04214749 161.31145982 -48.92771912 165.21702576 C-49.6828613 172.26245535 -51.04069927 179.03056615 -52.72265625 185.91015625 C-52.98759384 187.02184677 -53.25253143 188.13353729 -53.52549744 189.27891541 C-54.36397747 192.79187865 -55.21273652 196.30225082 -56.0625 199.8125 C-56.91391826 203.35531262 -57.76317495 206.89862754 -58.61021423 210.44248962 C-59.13586014 212.63897263 -59.66438878 214.83476813 -60.19606018 217.02980042 C-60.43308151 218.01520309 -60.67010284 219.00060577 -60.91430664 220.01586914 C-61.12446915 220.88425919 -61.33463165 221.75264923 -61.55116272 222.64735413 C-62.06958661 224.71765275 -62.06958661 224.71765275 -62 226.75 C-55.98399091 225.11837025 -50.91834513 222.02996236 -45.5625 218.9375 C-43.51830929 217.76939102 -41.47403588 216.60142676 -39.4296875 215.43359375 C-38.37749023 214.83015137 -37.32529297 214.22670898 -36.24121094 213.60498047 C-30.90175557 210.54915176 -25.54419035 207.52547909 -20.1875 204.5 C-19.19758057 203.93949951 -18.20766113 203.37899902 -17.18774414 202.80151367 C-16.27371826 202.28435791 -15.35969238 201.76720215 -14.41796875 201.234375 C-13.61125732 200.77772461 -12.8045459 200.32107422 -11.97338867 199.85058594 C-7.20925762 197.19356468 -3.41951262 196.82437268 2 197.75 C6.16334021 199.56563321 9.93784045 201.91510318 13.76367188 204.34130859 C16.31972894 205.95140131 18.89974139 207.51823048 21.484375 209.08203125 C25.45456012 211.48485633 29.41966975 213.89558036 33.37890625 216.31640625 C38.20346876 219.26506774 43.03273387 222.20549532 47.875 225.125 C48.4930249 225.50003662 49.1110498 225.87507324 49.74780273 226.26147461 C52.20805227 228.00637803 52.20805227 228.00637803 55 228.75 C54.44050816 221.46465703 53.23330447 214.46983995 51.6796875 207.3359375 C51.22222518 205.17196608 50.76520713 203.00790071 50.30859375 200.84375 C49.59172279 197.47440727 48.87089578 194.10604022 48.14208984 190.73925781 C47.43489972 187.4612909 46.74375694 184.18025435 46.0546875 180.8984375 C45.83392548 179.89928314 45.61316345 178.90012878 45.38571167 177.87069702 C43.96972072 171.05762911 42.9462202 164.96758835 46.875 158.8125 C50.24521946 155.21953616 54.19875336 152.24000402 58.0390625 149.171875 C60.95495899 146.78684093 63.73172134 144.30411384 66.5 141.75 C70.95671 137.64830531 75.5643485 133.80272045 80.2734375 129.99609375 C84.64120732 126.39800257 88.9406014 122.69492532 93 118.75 C93 118.42 93 118.09 93 117.75 C88.39641501 117.14136524 83.79215268 116.53799651 79.1875 115.9375 C78.49470947 115.8469635 77.80191895 115.756427 77.08813477 115.66314697 C65.9557939 114.21240003 54.81697319 112.90607155 43.64526367 111.78979492 C29.7915685 110.34130254 29.7915685 110.34130254 25.4140625 106.453125 C21.67649944 101.40269342 19.66954279 95.29690271 17.375 89.5 C16.85836737 88.2186437 16.34044518 86.93780666 15.82128906 85.6574707 C15.02039002 83.68223682 14.22016352 81.70676936 13.42382812 79.72969055 C10.6157852 72.76335088 7.68917211 65.84944179 4.75 58.9375 C4.27224121 57.81118164 3.79448242 56.68486328 3.30224609 55.52441406 C2.20263948 52.93245508 1.10192699 50.34097314 0 47.75 C-0.33 47.75 -0.66 47.75 -1 47.75 Z " fill="#000000" transform="translate(259,102.25)"/>
<path d="M0 0 C3.32408124 1.60291665 5.34781763 3.80871018 7.13354492 7.07055664 C8.37937435 11.2826466 8.30522765 15.31263357 8.30078125 19.68359375 C8.30506638 20.6167189 8.3093515 21.54984406 8.31376648 22.51124573 C8.3194977 24.48055207 8.32001896 26.44987957 8.31567383 28.41918945 C8.3125145 31.42370898 8.33598598 34.42724275 8.36132812 37.43164062 C8.36360138 39.3489571 8.36430449 41.2662762 8.36328125 43.18359375 C8.372491 44.07751328 8.38170074 44.9714328 8.39118958 45.8924408 C8.35340963 51.01344092 7.86510698 54.57512929 5 59 C1.62833366 62.05055526 -1.02588404 63.27403455 -5.5 63.5 C-9.97411596 63.27403455 -12.62833366 62.05055526 -16 59 C-19.3843369 53.76168766 -19.43953666 49.24744497 -19.3984375 43.21875 C-19.40274277 41.82118469 -19.40274277 41.82118469 -19.40713501 40.39538574 C-19.40916997 38.43204132 -19.40367998 36.46867636 -19.39111328 34.50537109 C-19.37505162 31.50962756 -19.3909814 28.51523309 -19.41015625 25.51953125 C-19.40817372 23.60676787 -19.40432984 21.69400533 -19.3984375 19.78125 C-19.40451019 18.89046753 -19.41058289 17.99968506 -19.4168396 17.08190918 C-19.34581207 10.7646191 -18.16432002 6.57013002 -14 1.625 C-9.40807617 -0.86229208 -5.10296124 -0.86795235 0 0 Z " fill="#000000" transform="translate(260,346)"/>
<path d="M0 0 C3.70195072 1.77968446 5.59649094 4.19298188 7.4375 7.875 C8.27328339 12.51824105 7.84134056 16.21177877 5.82836914 20.49023438 C3.54888017 23.61924314 1.3593232 24.80707122 -2.06640625 26.59375 C-2.65993393 26.90775757 -3.25346161 27.22176514 -3.86497498 27.54528809 C-5.75784687 28.54280084 -7.6597675 29.52145186 -9.5625 30.5 C-10.81378152 31.15635153 -12.06443918 31.81389384 -13.31445312 32.47265625 C-15.74294434 33.74887428 -18.17714912 35.01278479 -20.6184082 36.2644043 C-22.73488572 37.35068245 -24.84630783 38.4469329 -26.94995117 39.55786133 C-27.81724854 40.0092749 -28.6845459 40.46068848 -29.578125 40.92578125 C-30.68462402 41.50839722 -30.68462402 41.50839722 -31.81347656 42.1027832 C-35.85702971 43.76201252 -39.76378243 44.02009253 -44 43 C-47.97006578 40.69014354 -50.53813373 38.38559881 -52 34 C-52.34530278 28.64780697 -52.48807959 25.33002984 -49 21 C-45.20661136 17.68518837 -41.10937289 15.24239701 -36.6796875 12.890625 C-35.98038116 12.51895203 -35.28107483 12.14727905 -34.56057739 11.76434326 C-33.08477282 10.98460396 -31.60718461 10.20823218 -30.12792969 9.43505859 C-28.63140645 8.64787569 -27.14008928 7.85071143 -25.65429688 7.04345703 C-8.91181617 -2.05200332 -8.91181617 -2.05200332 0 0 Z " fill="#000000" transform="translate(159,274)"/>
<path d="M0 0 C3.37923858 1.66893007 5.40989854 4.07636294 7.4375 7.25 C8.29619411 11.4480601 8.19528078 14.8755743 7 19 C2.27043237 25.96564266 -4.7138394 31.86750953 -10.67211914 37.80249023 C-12.33012955 39.45507182 -13.98263976 41.11302199 -15.63476562 42.77148438 C-16.68978311 43.82584219 -17.74511014 44.87989038 -18.80078125 45.93359375 C-19.29347 46.42830673 -19.78615875 46.92301971 -20.29377747 47.432724 C-24.01347301 51.12680513 -25.96362066 52.19972342 -31.1875 52.4375 C-36.46114962 52.40978042 -39.01457937 51.23228554 -42.7578125 47.60546875 C-45.20865031 44.43787649 -45.20145245 41.10594216 -45.42578125 37.23046875 C-44.28895659 31.27517627 -38.98590503 26.690195 -34.84375 22.578125 C-34.25960327 21.99206482 -33.67545654 21.40600464 -33.0736084 20.80218506 C-31.84563612 19.57285939 -30.61516503 18.34602519 -29.38232422 17.12158203 C-27.49861258 15.2486205 -25.62586015 13.36517371 -23.75390625 11.48046875 C-22.55532856 10.28321205 -21.35613095 9.08657558 -20.15625 7.890625 C-19.59885132 7.32917786 -19.04145264 6.76773071 -18.46716309 6.18927002 C-12.64904158 0.44070287 -8.13495871 -1.25745419 0 0 Z " fill="#000000" transform="translate(355,122)"/>
<path d="M0 0 C1.11181641 -0.02513672 1.11181641 -0.02513672 2.24609375 -0.05078125 C8.13337346 0.87251894 12.09193603 5.54831475 16.10546875 9.58984375 C16.71513992 10.19760147 17.3248111 10.80535919 17.95295715 11.43153381 C19.23533901 12.71255942 20.51521768 13.99609522 21.79272461 15.28198242 C23.7469942 17.2469777 25.71172338 19.20105697 27.67773438 21.15429688 C28.92512109 22.40300492 30.1718874 23.65233308 31.41796875 24.90234375 C32.00442673 25.48475327 32.5908847 26.06716278 33.19511414 26.66722107 C37.24393325 30.76293611 39.40471304 33.32438433 39.875 39.25 C39.72571463 44.27905081 37.8015649 46.87983121 34.5625 50.625 C29.81834867 53.29358512 25.84636984 53.4700532 20.5625 52.3125 C18.21166992 50.65991211 18.21166992 50.65991211 15.91796875 48.46484375 C15.05647217 47.64910889 14.19497559 46.83337402 13.30737305 45.99291992 C11.94866089 44.66611206 11.94866089 44.66611206 10.5625 43.3125 C9.62768799 42.41442627 8.69287598 41.51635254 7.72973633 40.59106445 C5.30451911 38.25158555 2.90611157 35.886647 0.51855469 33.50878906 C-0.95723142 32.04290091 -2.44337552 30.58801789 -3.9296875 29.1328125 C-4.88086013 28.18815584 -5.83140518 27.24286675 -6.78125 26.296875 C-7.62880859 25.45866211 -8.47636719 24.62044922 -9.34960938 23.75683594 C-11.95642081 20.70498888 -13.34782214 18.0582291 -13.5546875 14.03125 C-13.0075491 9.01875625 -12.25457766 5.91145894 -8.4375 2.3125 C-5.54656804 0.58765824 -3.35807693 0.01745967 0 0 Z " fill="#000000" transform="translate(166.4375,121.6875)"/>
<path d="M0 0 C4.61770754 2.00409468 9.06509168 4.33384295 13.50137329 6.70797729 C15.88125579 7.98009714 18.27616333 9.21924267 20.67544556 10.45431519 C22.20963099 11.25647571 23.74286908 12.06045126 25.27505493 12.86642456 C25.98346024 13.23434616 26.69186554 13.60226776 27.42173767 13.9813385 C32.52359101 16.73051356 37.1531811 19.54767805 39.06802368 25.29220581 C39.56973932 31.41313662 39.15635992 34.40891531 35.06802368 39.29220581 C31.43017485 42.42930767 29.00853969 43.08166317 24.26528931 42.92941284 C17.58963324 41.59897131 11.65781203 38.1575657 5.68960571 34.98629761 C3.32241328 33.73203165 0.93786449 32.51725544 -1.45150757 31.30587769 C-2.982638 30.51062426 -4.51262777 29.71317001 -6.04135132 28.91329956 C-6.74459534 28.55570053 -7.44783936 28.1981015 -8.1723938 27.82966614 C-13.10908103 25.17030778 -16.77512747 21.96472305 -19.93197632 17.29220581 C-21.0856397 12.79487397 -20.47147746 8.62676128 -18.74447632 4.35470581 C-13.67017489 -1.41949926 -7.23834285 -2.65182185 0 0 Z " fill="#000000" transform="translate(365.9319763183594,274.7077941894531)"/>
</svg>
