<?xml version="1.0" encoding="UTF-8"?>
<svg version="1.1" xmlns="http://www.w3.org/2000/svg" width="512" height="512">
<path d="M0 0 C0.71768555 0.19335938 1.43537109 0.38671875 2.17480469 0.5859375 C33.71850939 9.43839339 60.51328304 30.70041496 77 59 C92.08026721 86.54529487 97.25767607 120.43762279 89 151 C88.80664062 151.71768555 88.61328125 152.43537109 88.4140625 153.17480469 C82.92267602 172.7421062 73.12546685 189.39363858 59.41796875 204.3515625 C46.21902374 218.80856527 33.56639299 233.63689112 32 254 C33.2375 254.061875 33.2375 254.061875 34.5 254.125 C41.80085956 255.95021489 47.89620438 261.79956114 52 268 C55.9331299 275.55457781 56.36277514 284.6661274 54.2734375 292.84375 C50.79653992 302.22854671 44.96037884 307.71724266 36 312 C35.01 312 34.02 312 33 312 C33.42152344 312.80824219 33.84304688 313.61648438 34.27734375 314.44921875 C34.82519531 315.51785156 35.37304688 316.58648437 35.9375 317.6875 C36.48277344 318.74324219 37.02804687 319.79898437 37.58984375 320.88671875 C41.13833803 328.7209291 40.68035645 336.52515159 38.03515625 344.546875 C34.57128271 352.75560174 28.09945048 358.50693532 20.1875 362.375 C18 363 18 363 15 363 C15.0825 363.9075 15.165 364.815 15.25 365.75 C15.18322973 376.7670938 9.23997229 386.45809622 1.8984375 394.22265625 C-8.94636524 404.4734857 -20.91890308 407.64209866 -35.48046875 407.30859375 C-47.96547129 406.68108893 -57.86689997 400.62247125 -66.3125 391.6875 C-73.27193067 383.43459939 -77.44439084 373.88757551 -77 363 C-78.2065625 362.938125 -78.2065625 362.938125 -79.4375 362.875 C-87.21441805 360.96487978 -93.55143595 355.56556559 -98 349 C-102.36780769 341.0009169 -103.18770809 332.65495612 -100.75 323.9375 C-99.33758399 319.56509255 -97.44617067 315.88013278 -95 312 C-95.73347656 311.8865625 -96.46695313 311.773125 -97.22265625 311.65625 C-104.76935381 309.87306408 -109.76960121 304.6956699 -113.80859375 298.34375 C-117.91414968 290.26724653 -118.36649325 281.06144734 -116.0625 272.3125 C-113.3616415 265.37474972 -107.49554895 259.23067571 -101.1875 255.375 C-98 254 -98 254 -94 254 C-97.03554061 234.508634 -106.13424972 221.12501513 -119.5 207.0625 C-134.71385126 190.98727792 -145.11134425 172.33656268 -151 151 C-151.3403125 149.78828125 -151.680625 148.5765625 -152.03125 147.328125 C-159.28461706 116.03118937 -152.80378405 81.40322411 -135.90673828 54.24267578 C-117.19819666 25.51821014 -89.04956703 6.00520276 -55.5625 -1.4375 C-37.70435295 -4.96377879 -17.62927147 -4.76326865 0 0 Z M-105 36 C-105.52190918 36.47953125 -106.04381836 36.9590625 -106.58154297 37.453125 C-128.04938614 57.4032943 -142.02931315 84.82327776 -143.28515625 114.375 C-144.07743869 146.78784047 -133.39414572 174.59652765 -111.30419922 198.29663086 C-97.04676092 213.67079453 -87.25328367 228.31029809 -83 249 C-82.67 250.32 -82.34 251.64 -82 253 C-74.08 253 -66.16 253 -58 253 C-58 224.95 -58 196.9 -58 168 C-66.91 167.67 -75.82 167.34 -85 167 C-96.39724256 162.44110298 -101.82841242 159.39469792 -106.89453125 148.48828125 C-109.35968303 140.70955144 -109.46406715 131.6523248 -106.4375 124 C-101.84655399 115.61792436 -95.97373741 110.36154472 -87 107 C-78.42450042 104.95697506 -69.90523509 105.6574141 -62.13671875 110.0546875 C-60.73691001 111.0064185 -59.36606575 112.0004397 -58 113 C-56.515 113.495 -56.515 113.495 -55 114 C-53.97265625 115.7578125 -53.97265625 115.7578125 -53 118 C-52.58621094 118.78117187 -52.17242187 119.56234375 -51.74609375 120.3671875 C-51.09833984 121.60855469 -51.09833984 121.60855469 -50.4375 122.875 C-49.78587891 124.10863281 -49.78587891 124.10863281 -49.12109375 125.3671875 C-46.37392979 131.8187154 -46.69725379 138.96797675 -46.4375 145.875 C-46.2209375 151.381875 -46.2209375 151.381875 -46 157 C-36.1 157 -26.2 157 -16 157 C-15.75168841 149.83636024 -15.75168841 149.83636024 -15.52197266 142.67211914 C-14.90770839 126.95001127 -14.90770839 126.95001127 -10.4375 120.625 C-8.82505884 118.29963976 -7.91191903 116.73575708 -7 114 C-5.24609375 112.97265625 -5.24609375 112.97265625 -3 112 C-2.20722656 111.58621094 -1.41445313 111.17242187 -0.59765625 110.74609375 C0.23894531 110.31425781 1.07554687 109.88242188 1.9375 109.4375 C2.77152344 109.00308594 3.60554687 108.56867188 4.46484375 108.12109375 C12.18399582 104.7075396 19.88254952 105.51318816 27.68359375 108.09765625 C35.16086023 111.01038569 41.51560345 117.2042583 44.9375 124.5 C47.66785196 133.27859997 47.30618293 143.32905425 43.4375 151.625 C38.16828504 160.68952364 33.11602826 162.95358869 23 167 C9.635 167.495 9.635 167.495 -4 168 C-4 196.05 -4 224.1 -4 253 C3.92 253 11.84 253 20 253 C20.7425 249.2875 20.7425 249.2875 21.5 245.5 C25.38966334 228.12369973 34.88231138 214.42736546 46.9375 201.5625 C69.90323933 177.03305867 82.11084793 148.17137259 81.28515625 114.37109375 C80.03443016 84.93454884 66.53231745 57.01880509 45 37 C2.46427534 -0.08505261 -62.5012716 -3.13551968 -105 36 Z M-94.375 124.5 C-98.0977612 130.22732492 -98.80434487 135.24556549 -98 142 C-96.15564403 148.61866986 -91.8929214 152.6737221 -86 156 C-82.74571867 157.03634965 -79.76286815 157.11575994 -76.359375 157.09765625 C-75.28945312 157.09443359 -74.21953125 157.09121094 -73.1171875 157.08789062 C-72.00601563 157.07951172 -70.89484375 157.07113281 -69.75 157.0625 C-68.62335938 157.05798828 -67.49671875 157.05347656 -66.3359375 157.04882812 C-63.55723783 157.03705397 -60.77864591 157.0206084 -58 157 C-57.85371166 152.83370795 -57.76559579 148.66808403 -57.6875 144.5 C-57.6246582 142.74042969 -57.6246582 142.74042969 -57.56054688 140.9453125 C-57.45769892 133.62253797 -58.05168193 128.59540582 -63 123 C-68.75085929 117.66993529 -73.20922221 116.48497453 -80.953125 116.6171875 C-86.82621881 117.35508903 -90.39908548 120.31482682 -94.375 124.5 Z M0.1875 124 C-3.19383004 128.63725263 -4.25213556 131.28217273 -4.1953125 137.078125 C-4.18886719 138.23828125 -4.18242187 139.3984375 -4.17578125 140.59375 C-4.15902344 141.8003125 -4.14226562 143.006875 -4.125 144.25 C-4.11597656 145.47203125 -4.10695313 146.6940625 -4.09765625 147.953125 C-4.07409513 150.96894782 -4.04119706 153.98437492 -4 157 C-0.14597871 157.08770383 3.70778291 157.14062735 7.5625 157.1875 C9.19155273 157.22520508 9.19155273 157.22520508 10.85351562 157.26367188 C18.52552268 157.33362939 23.1638805 156.4087262 29.6875 152.3125 C34.1147315 147.8852685 36.21980141 143.28031331 36.5 137 C36.23538007 131.25774749 34.52825603 126.65669685 30.5390625 122.46484375 C24.77469734 117.44662738 20.47713604 116.54150343 12.9765625 116.6875 C7.35602318 117.27758287 3.89205531 119.78151795 0.1875 124 Z M-46 168 C-46 196.05 -46 224.1 -46 253 C-36.1 253 -26.2 253 -16 253 C-16 224.95 -16 196.9 -16 168 C-25.9 168 -35.8 168 -46 168 Z M-101.875 270.9375 C-105.4950817 276.15467656 -106.93431248 280.60173355 -106 287 C-104.14460273 292.92171704 -100.51287665 298.02057957 -95 301 C-88.36413864 303.01589981 -81.91299134 303.28718998 -75.0234375 303.25878906 C-73.43381195 303.26404602 -73.43381195 303.26404602 -71.81207275 303.26940918 C-68.33298051 303.27816217 -64.85409407 303.27240005 -61.375 303.265625 C-58.94319622 303.2669735 -56.5113927 303.26891557 -54.07958984 303.27142334 C-48.99248681 303.2743659 -43.9054542 303.27010486 -38.81835938 303.26074219 C-32.3120259 303.24934827 -25.80585746 303.25591238 -19.29953003 303.26788712 C-14.28083055 303.27512913 -9.26216991 303.27280702 -4.24346924 303.26763153 C-1.84499085 303.26630152 0.55349112 303.26791995 2.95196533 303.27259064 C6.30921717 303.27769434 9.6662052 303.26989157 13.0234375 303.25878906 C14.00552185 303.26283752 14.9876062 303.26688599 15.99945068 303.27105713 C25.19794853 303.21496995 32.53910319 302.47499812 39.3359375 295.921875 C43.14705543 291.52030217 44.60686007 286.86205637 44.34765625 281.046875 C43.46364672 275.84214474 41.00792031 271.60145563 37.0625 268.125 C32.68765203 265.08939121 29.22215308 263.75309194 23.89689636 263.73257446 C22.38938057 263.71977951 22.38938057 263.71977951 20.85140991 263.70672607 C19.75986603 263.70763245 18.66832214 263.70853882 17.54370117 263.70947266 C15.80623878 263.69939682 15.80623878 263.69939682 14.03367615 263.68911743 C10.20339674 263.6701152 6.37329237 263.66621202 2.54296875 263.6640625 C0.55230061 263.6592605 -1.43836757 263.65445499 -3.42903441 263.64914167 C-9.688461 263.6328722 -15.94783009 263.62797133 -22.20727539 263.62939453 C-28.65060694 263.63059514 -35.09360308 263.60950637 -41.5368498 263.5779072 C-47.08014549 263.55169671 -52.62333197 263.54102925 -58.1666891 263.54230535 C-61.47242169 263.54281366 -64.77779021 263.53534661 -68.08347511 263.51594925 C-71.77443766 263.49631985 -75.46454073 263.50211657 -79.15551758 263.51416016 C-80.78372437 263.49730164 -80.78372437 263.49730164 -82.44482422 263.48010254 C-90.28225122 263.54497668 -96.51450436 264.90373398 -101.875 270.9375 Z M-86.05859375 320.11328125 C-89.38750515 325.42256487 -91.85823121 329.75362123 -90.55078125 336.22265625 C-88.7297073 342.52799322 -86.06989079 347.07026601 -80.39450073 350.63781738 C-76.11319176 352.35586817 -72.5671801 352.43612174 -68.00048828 352.41992188 C-66.67245682 352.43262619 -66.67245682 352.43262619 -65.31759644 352.44558716 C-62.40168748 352.46891468 -59.48630757 352.46998028 -56.5703125 352.46875 C-54.53538809 352.47585443 -52.50046567 352.48355384 -50.46554565 352.49182129 C-46.20369904 352.50525658 -41.94203763 352.50683924 -37.68017578 352.50097656 C-32.23046564 352.49508323 -26.78164721 352.52566172 -21.33210945 352.56609344 C-17.13006844 352.591999 -12.92824129 352.59484521 -8.72613144 352.59120178 C-6.7175561 352.59289053 -4.70897063 352.60250934 -2.70047379 352.62034607 C0.1141831 352.642591 2.92704616 352.63280583 5.74169922 352.61523438 C6.56377869 352.62849762 7.38585815 352.64176086 8.23284912 352.65542603 C14.29453585 352.56791734 18.25386488 350.74756506 23 347 C26.93908061 342.73475348 29 337.82540466 29 332 C27.85112243 326.591869 26.07550834 321.85521059 22 318 C16.37978136 314.37132184 11.55954668 313.41561649 4.95703125 313.48242188 C3.65782242 313.47190796 3.65782242 313.47190796 2.33236694 313.46118164 C-0.50792261 313.44369151 -3.34720173 313.45519224 -6.1875 313.46875 C-8.17472524 313.4660525 -10.16194918 313.46216794 -12.14916992 313.45715332 C-16.30497865 313.45127043 -20.46044244 313.45978225 -24.61621094 313.47851562 C-29.92902589 313.50130431 -35.24103242 313.48817474 -40.55381775 313.46422577 C-44.65464307 313.44973511 -48.75527841 313.45438877 -52.85610962 313.46473694 C-54.81442359 313.46739519 -56.77275511 313.46416636 -58.73104858 313.45481873 C-61.47350408 313.44459918 -64.21467111 313.46022918 -66.95703125 313.48242188 C-67.75726715 313.47432495 -68.55750305 313.46622803 -69.38198853 313.45788574 C-75.92081163 313.55535153 -81.42244628 315.35397236 -86.05859375 320.11328125 Z M-66 364 C-63.62440506 375.87797471 -60.16047182 384.06653829 -50 391 C-41.08217794 395.81885607 -32.14101498 397.58901942 -22.0859375 395.3515625 C-11.6950286 391.92695309 -4.05940421 385.72962348 1 376 C2.67963321 371.97905988 4 368.37953402 4 364 C-19.1 364 -42.2 364 -66 364 Z " fill="#000000" transform="translate(287,54)"/>
<path d="M0 0 C3.06103516 1.47119141 3.06103516 1.47119141 6.2890625 3.3515625 C6.87360199 3.68868256 7.45814148 4.02580261 8.06039429 4.37313843 C9.92038262 5.44854041 11.77268025 6.53645359 13.625 7.625 C14.84456417 8.33287253 16.06461305 9.03991065 17.28515625 9.74609375 C19.68948848 11.13899221 22.08912042 12.53950344 24.48535156 13.94628906 C26.82684383 15.31953781 29.17754371 16.67441985 31.53808594 18.01464844 C32.62637695 18.63629883 33.71466797 19.25794922 34.8359375 19.8984375 C35.80837402 20.44935059 36.78081055 21.00026367 37.78271484 21.56787109 C40 23 40 23 41 25 C41.1875 28 41.1875 28 41 31 C39 33 39 33 36.22045898 33.29663086 C32.60693509 32.96379548 30.60526079 32.05505104 27.47265625 30.25390625 C26.43963379 29.66786621 25.40661133 29.08182617 24.34228516 28.47802734 C23.25995605 27.84590332 22.17762695 27.2137793 21.0625 26.5625 C19.95181152 25.92521973 18.84112305 25.28793945 17.69677734 24.63134766 C14.45710105 22.76670779 11.22825967 20.88431272 8 19 C6.37677401 18.06818784 4.7531361 17.13709249 3.12890625 16.20703125 C-7.91977134 9.78979839 -7.91977134 9.78979839 -10 6 C-9.3125 2.8125 -9.3125 2.8125 -8 0 C-5.03720702 -1.48139649 -3.19138129 -0.75385833 0 0 Z " fill="#000000" transform="translate(83,88)"/>
<path d="M0 0 C1.97752112 1.1129715 3.91573968 2.27552635 5.85009766 3.46191406 C6.56689697 3.89310547 7.28369629 4.32429687 8.0222168 4.76855469 C9.57284828 5.70195418 11.12152951 6.63859966 12.66845703 7.578125 C15.31938147 9.18175783 17.98179229 10.76490953 20.64697266 12.34472656 C22.46482625 13.42521138 24.28253724 14.50593614 26.10009766 15.58691406 C27.40563599 16.36107666 27.40563599 16.36107666 28.73754883 17.15087891 C29.54683838 17.63508301 30.35612793 18.11928711 31.18994141 18.61816406 C31.90915771 19.04677734 32.62837402 19.47539062 33.36938477 19.91699219 C35.16259766 21.08691406 35.16259766 21.08691406 37.16259766 23.08691406 C37.41259766 26.08691406 37.41259766 26.08691406 37.16259766 29.08691406 C35.16259766 31.08691406 35.16259766 31.08691406 31.90283203 31.3972168 C27.84766775 31.06078639 25.78543471 30.19064233 22.31884766 28.12207031 C21.24368896 27.49091309 20.16853027 26.85975586 19.06079102 26.20947266 C17.93938721 25.52965332 16.8179834 24.84983398 15.66259766 24.14941406 C14.49994334 23.45638458 13.33660924 22.7644943 12.17260742 22.07373047 C9.87980702 20.71072681 7.59269343 19.33942727 5.30761719 17.96337891 C2.61170203 16.35487061 -0.10081736 14.79342528 -2.84130859 13.26269531 C-3.54255859 12.86493896 -4.24380859 12.46718262 -4.96630859 12.05737305 C-6.7652429 11.03820408 -8.56872462 10.02707324 -10.37255859 9.01660156 C-12.83740234 7.08691406 -12.83740234 7.08691406 -13.75537109 4.48535156 C-13.85109833 1.68646953 -13.46071014 0.35954498 -11.83740234 -1.91308594 C-7.45318242 -3.37449258 -4.00384168 -1.98968481 0 0 Z " fill="#000000" transform="translate(401.83740234375,233.9130859375)"/>
<path d="M0 0 C1.25 2.6875 1.25 2.6875 2 6 C-0.95101701 10.90517573 -5.02878015 12.99953065 -9.9375 15.5625 C-11.5466555 16.42376164 -13.15468058 17.2871378 -14.76171875 18.15234375 C-15.60911621 18.60722168 -16.45651367 19.06209961 -17.32958984 19.53076172 C-20.13443823 21.07396684 -22.8908941 22.68369365 -25.64453125 24.31640625 C-26.5785376 24.86675537 -27.51254395 25.41710449 -28.47485352 25.98413086 C-30.29473588 27.06017813 -32.10926596 28.1453407 -33.91772461 29.24047852 C-41.91990184 33.93082544 -41.91990184 33.93082544 -47 33 C-49 31 -49 31 -49.3125 28.0625 C-48.95164991 24.52616916 -48.63137794 24.1853578 -46 22 C-44.19891181 20.85643801 -42.36468727 19.76446226 -40.51171875 18.70703125 C-38.87251465 17.76633789 -38.87251465 17.76633789 -37.20019531 16.80664062 C-36.0295519 16.14147806 -34.85864887 15.47677222 -33.6875 14.8125 C-31.90798315 13.79957241 -30.12885878 12.78595851 -28.349823 11.77218628 C-26.61367447 10.78310754 -24.87690976 9.79511063 -23.14013672 8.80712891 C-20.52972894 7.30485567 -17.94678821 5.77251101 -15.37890625 4.19921875 C-14.74702393 3.81725342 -14.1151416 3.43528809 -13.46411133 3.04174805 C-11.88124727 2.07976529 -10.307374 1.10303046 -8.734375 0.125 C-5.3940026 -1.24932464 -3.4475795 -0.89759466 0 0 Z " fill="#000000" transform="translate(437,88)"/>
<path d="M0 0 C0.72438673 2.60779224 1.20945034 4.3686847 0.34448242 6.97583008 C-1.43489604 9.65475269 -3.31188354 10.61152531 -6.13671875 12.13671875 C-7.18230957 12.71019043 -8.22790039 13.28366211 -9.30517578 13.87451172 C-10.97942627 14.77194092 -10.97942627 14.77194092 -12.6875 15.6875 C-14.97128256 16.93133715 -17.25383942 18.17742747 -19.53515625 19.42578125 C-20.6452002 20.03244629 -21.75524414 20.63911133 -22.89892578 21.26416016 C-28.03815528 24.14086632 -32.98466657 27.3035233 -37.9140625 30.5234375 C-41.5588806 32.26741376 -44.00538765 32.43524832 -48 32 C-50 30 -50 30 -50.4375 27.125 C-50 24 -50 24 -47.83666992 22.02099609 C-45.02033584 20.01448835 -42.18005748 18.25032536 -39.17578125 16.5390625 C-38.06396484 15.90226562 -36.95214844 15.26546875 -35.80664062 14.609375 C-34.64204301 13.94771259 -33.4773289 13.28625516 -32.3125 12.625 C-30.03728414 11.32635491 -27.76253786 10.02688674 -25.48828125 8.7265625 C-24.39338379 8.10168945 -23.29848633 7.47681641 -22.17041016 6.83300781 C-18.41434538 4.66139728 -14.70598024 2.41816892 -11.01245117 0.14208984 C-6.62679226 -2.34682346 -4.58077722 -1.73051584 0 0 Z " fill="#000000" transform="translate(123,233)"/>
<path d="M0 0 C1.55170898 -0.00945648 1.55170898 -0.00945648 3.13476562 -0.019104 C4.81602539 -0.01303131 4.81602539 -0.01303131 6.53125 -0.00683594 C8.25118164 -0.00970612 8.25118164 -0.00970612 10.00585938 -0.01263428 C12.43359598 -0.01399715 14.86133984 -0.01029361 17.2890625 -0.00195312 C21.01579073 0.00874469 24.74203686 -0.00184525 28.46875 -0.01464844 C30.82291774 -0.01332686 33.17708517 -0.01076451 35.53125 -0.00683594 C36.65208984 -0.0108844 37.77292969 -0.01493286 38.92773438 -0.019104 C39.96220703 -0.01279968 40.99667969 -0.00649536 42.0625 0 C43.43245117 0.00238678 43.43245117 0.00238678 44.83007812 0.00482178 C47.03125 0.25878906 47.03125 0.25878906 49.03125 2.25878906 C49.58830509 7.49510695 49.58830509 7.49510695 47.81590271 9.92494202 C45.48022549 11.67062404 44.06563711 11.6448136 41.16430664 11.6628418 C40.1764064 11.67552597 39.18850616 11.68821014 38.17066956 11.70127869 C36.57218422 11.69687523 36.57218422 11.69687523 34.94140625 11.69238281 C33.29730019 11.70024559 33.29730019 11.70024559 31.61997986 11.70826721 C29.3007797 11.71469388 26.98154697 11.71334214 24.66235352 11.70483398 C21.11090083 11.69633013 17.56105906 11.72506859 14.00976562 11.75683594 C11.75781298 11.75844813 9.50585749 11.75787007 7.25390625 11.75488281 C6.19027359 11.76611679 5.12664093 11.77735077 4.03077698 11.78892517 C-3.30013758 11.71953333 -3.30013758 11.71953333 -6.67797852 9.3918457 C-7.96875 7.25878906 -7.96875 7.25878906 -7.84375 4.63378906 C-6.21010052 0.19959762 -4.39600598 0.00765888 0 0 Z " fill="#000000" transform="translate(411.96875,170.7412109375)"/>
<path d="M0 0 C1.54686745 -0.01913956 1.54686745 -0.01913956 3.12498474 -0.03866577 C4.24268753 -0.04089142 5.36039032 -0.04311707 6.51196289 -0.04541016 C8.22833702 -0.05539536 8.22833702 -0.05539536 9.97938538 -0.06558228 C12.40290719 -0.07572197 14.826457 -0.08039889 17.25 -0.08007812 C20.96604214 -0.0844508 24.68089675 -0.12075716 28.39672852 -0.15869141 C30.7476359 -0.16455924 33.09854894 -0.16852885 35.44946289 -0.17041016 C37.12298073 -0.19196671 37.12298073 -0.19196671 38.83030701 -0.21395874 C39.86470413 -0.20780548 40.89910126 -0.20165222 41.96484375 -0.1953125 C42.87592392 -0.19816254 43.78700409 -0.20101257 44.72569275 -0.20394897 C47.04711914 0.29052734 47.04711914 0.29052734 48.87257385 2.15682983 C50.04711914 4.29052734 50.04711914 4.29052734 49.92211914 6.91552734 C49.04711914 9.29052734 49.04711914 9.29052734 46.04711914 11.29052734 C43.80834961 11.55122375 43.80834961 11.55122375 41.16430664 11.56518555 C40.17317871 11.57471756 39.18205078 11.58424957 38.16088867 11.59407043 C37.09209473 11.59315903 36.02330078 11.59224762 34.92211914 11.59130859 C33.27445557 11.59773628 33.27445557 11.59773628 31.59350586 11.60429382 C29.27010793 11.61003919 26.94669201 11.61053588 24.62329102 11.60620117 C21.06113148 11.60303978 17.49980102 11.62650363 13.93774414 11.65185547 C11.68253686 11.65412822 9.42732734 11.65483207 7.17211914 11.65380859 C5.56892822 11.66762321 5.56892822 11.66762321 3.93334961 11.68171692 C2.44665771 11.67237373 2.44665771 11.67237373 0.92993164 11.6628418 C-0.37886963 11.66378593 -0.37886963 11.66378593 -1.71411133 11.66474915 C-4.44571072 11.20814831 -5.33606385 10.51151757 -6.95288086 8.29052734 C-7.26538086 5.22802734 -7.26538086 5.22802734 -6.95288086 2.29052734 C-4.41756273 -0.24479079 -3.51426215 0.0294318 0 0 Z " fill="#000000" transform="translate(57.952880859375,170.70947265625)"/>
</svg>
