<?xml version="1.0" encoding="UTF-8"?>
<svg version="1.1" xmlns="http://www.w3.org/2000/svg" width="78" height="71">
<path d="M0 0 C4.79475416 -0.08266818 9.30372318 -0.11816115 14 1 C14.66 1.66 15.32 2.32 16 3 C18.34754398 4.33903214 18.34754398 4.33903214 21 5 C23.70918234 4.07113748 24.96364164 3.03635836 27 1 C30.09144988 0.09075004 32.98356551 -0.04304561 36.1796875 -0.0234375 C38.07074219 -0.01183594 38.07074219 -0.01183594 40 0 C40.1979005 3.87454177 40.3814709 7.7496362 40.5625 11.625 C40.64661133 13.26662109 40.64661133 13.26662109 40.73242188 14.94140625 C40.78076172 16.00488281 40.82910156 17.06835938 40.87890625 18.1640625 C40.9260376 19.13811035 40.97316895 20.1121582 41.02172852 21.11572266 C40.99868166 24.17499807 40.57784025 26.9999001 40 30 C39.49210937 29.72285156 38.98421875 29.44570313 38.4609375 29.16015625 C32.54323831 25.96145928 32.54323831 25.96145928 26 25 C23.25 27.25 23.25 27.25 21 30 C20.01 30.66 19.02 31.32 18 32 C17.67 29.69 17.34 27.38 17 25 C13.04 25.33 9.08 25.66 5 26 C5 26.66 5 27.32 5 28 C3 29.625 3 29.625 1 31 C-0.75877355 26.13750842 -1.04349614 22.83100328 -0.29296875 17.75390625 C0.33229791 11.87639964 0.07000134 5.90344633 0 0 Z M3 16 C5.63904371 17.41377341 8.07120629 18.37240135 11 19 C11 18.34 11 17.68 11 17 C8.36 16.67 5.72 16.34 3 16 Z M32 16 C36 17 36 17 36 17 Z M13 19 C14 21 14 21 14 21 Z M22 23 C23 25 23 25 23 25 Z " fill="#F08A2D" transform="translate(19,21)"/>
<path d="M0 0 C0.33 0.66 0.66 1.32 1 2 C3.18893073 2.39362058 3.18893073 2.39362058 5.75 2.5 C12.90663203 3.10406479 12.90663203 3.10406479 16 5 C16.8125 7.125 16.8125 7.125 17 9 C20.61386134 8.68112988 21.94411411 8.0506872 24.6875 5.5625 C28.51971247 2.09143844 33.87654741 1 39 1 C39.77916092 6.02125926 40.13016601 9.97703996 39 15 C38.49210937 14.72285156 37.98421875 14.44570313 37.4609375 14.16015625 C31.54323831 10.96145928 31.54323831 10.96145928 25 10 C22.25 12.25 22.25 12.25 20 15 C19.01 15.66 18.02 16.32 17 17 C16.67 14.69 16.34 12.38 16 10 C10.06 10.495 10.06 10.495 4 11 C4 11.66 4 12.32 4 13 C2 14.625 2 14.625 0 16 C-2.28545662 10.03241883 -1.79172099 6.07806891 0 0 Z " fill="#50AD51" transform="translate(20,36)"/>
<path d="M0 0 C0 1.32 0 2.64 0 4 C-1.32 4 -2.64 4 -4 4 C-4 4.66 -4 5.32 -4 6 C-6 7.625 -6 7.625 -8 9 C-9 8 -9 8 -9.0625 4.9375 C-9.041875 3.968125 -9.02125 2.99875 -9 2 C-2.25 0 -2.25 0 0 0 Z " fill="#47B14C" transform="translate(28,43)"/>
<path d="M0 0 C0.66 0 1.32 0 2 0 C1.67 0.66 1.34 1.32 1 2 C0.67 1.34 0.34 0.68 0 0 Z " fill="#884422" transform="translate(41,61)"/>
<path d="M0 0 C0.99 0.495 0.99 0.495 2 1 C1.01 1.495 1.01 1.495 0 2 C0 1.34 0 0.68 0 0 Z " fill="#2A662A" transform="translate(55,50)"/>
<path d="" fill="#000000" transform="translate(0,0)"/>
<path d="" fill="#FFFFFF" transform="translate(0,0)"/>
<path d="" fill="#EBEBEB" transform="translate(0,0)"/>
<path d="" fill="#000000" transform="translate(0,0)"/>
<path d="" fill="#397139" transform="translate(0,0)"/>
<path d="" fill="#000000" transform="translate(0,0)"/>
<path d="" fill="#000000" transform="translate(0,0)"/>
<path d="" fill="#000000" transform="translate(0,0)"/>
<path d="" fill="#000000" transform="translate(0,0)"/>
<path d="" fill="#000000" transform="translate(0,0)"/>
<path d="" fill="#000000" transform="translate(0,0)"/>
</svg>
