<?xml version="1.0" encoding="UTF-8"?>
<svg version="1.1" xmlns="http://www.w3.org/2000/svg" width="512" height="512">
<path d="M0 0 C0.78436432 0.00215515 1.56872864 0.0043103 2.37686157 0.00653076 C14.8918104 0.06146336 26.97219014 0.72671174 39.25 3.3125 C40.2080957 3.50585938 41.16619141 3.69921875 42.15332031 3.8984375 C95.09861518 14.80042386 95.09861518 14.80042386 106.25 29.3125 C106.77177189 33.33759747 106.60306455 35.62108192 104.75 39.25 C101.86094941 41.63346673 100.16139509 41.73749872 96.484375 41.63549805 C92.43229543 41.04973523 89.08642553 39.14162425 85.5 37.25 C38.6172178 13.88467989 -16.07192996 11.27285476 -65.625 27.625 C-97.59719405 38.59066986 -125.33784366 56.05120246 -149.75 79.3125 C-150.52859375 80.03824219 -151.3071875 80.76398438 -152.109375 81.51171875 C-185.71152977 113.74357288 -208.01838501 163.68581457 -208.98828125 210.1171875 C-209.8526532 268.78427477 -193.18792217 326.22973264 -151.796875 369.23046875 C-150.78434887 370.26086681 -149.7687256 371.28823076 -148.75 372.3125 C-148.24919922 372.8173291 -147.74839844 373.3221582 -147.23242188 373.84228516 C-109.72026636 411.15083063 -55.66575897 429.81022668 -3.4375 429.6875 C-2.1249826 429.68668427 -2.1249826 429.68668427 -0.78594971 429.68585205 C54.92603617 429.52736685 106.32854579 408.15243207 146.375 369.5 C152.20793934 363.53427831 157.25855421 356.98325407 162.25 350.3125 C162.87648438 349.48105469 163.50296875 348.64960938 164.1484375 347.79296875 C183.05956026 321.73468457 194.29593094 291.80214046 200.25 260.3125 C200.41371094 259.47170898 200.57742188 258.63091797 200.74609375 257.76464844 C208.82177031 214.66656467 201.42707846 169.61175542 181.5703125 130.71484375 C180.10753639 126.94538223 179.84528081 124.32114723 180.25 120.3125 C182.70000447 116.92572911 184.11392446 115.52551416 188.25 114.75 C192.08781283 115.46958991 193.43787563 116.58520593 196.25 119.3125 C197.98805841 122.11549807 199.33874822 125.05624963 200.6875 128.0625 C201.07655518 128.91231445 201.46561035 129.76212891 201.86645508 130.63769531 C213.41608036 156.19736243 221.29927106 184.44411493 221.453125 212.640625 C221.46013931 213.50365738 221.46715363 214.36668976 221.47438049 215.25587463 C221.49178751 218.02480343 221.49823244 220.7935185 221.5 223.5625 C221.50067474 224.50757416 221.50134949 225.45264832 221.50204468 226.42636108 C221.48667863 239.94690284 221.15958385 253.05897973 218.25 266.3125 C218.07307617 267.16424805 217.89615234 268.01599609 217.71386719 268.89355469 C208.71781659 311.72967125 188.47674873 349.73465959 158.25 381.3125 C157.77981445 381.80991699 157.30962891 382.30733398 156.82519531 382.81982422 C149.22805066 390.82588763 141.09055847 397.71999721 132.25 404.3125 C131.69086914 404.73772949 131.13173828 405.16295898 130.55566406 405.60107422 C93.67786672 433.59849129 47.22124081 448.52756201 1.125 448.5625 C0.32454254 448.56317474 -0.47591492 448.56384949 -1.30062866 448.56454468 C-14.65887114 448.54671302 -27.59185866 447.75584286 -40.75 445.3125 C-41.65862793 445.15152832 -42.56725586 444.99055664 -43.50341797 444.82470703 C-85.22409726 437.26487637 -125.22540512 419.11308225 -156.1015625 389.78515625 C-157.99682442 388.01568605 -159.88127883 386.35628411 -161.8828125 384.71875 C-165.63322227 381.57126714 -168.60365968 378.0468244 -171.75 374.3125 C-172.49121094 373.47074219 -173.23242188 372.62898438 -173.99609375 371.76171875 C-198.71651019 343.16514101 -214.54786995 307.82750204 -222.0625 270.9375 C-222.20977539 270.21498047 -222.35705078 269.49246094 -222.50878906 268.74804688 C-225.27475056 254.09557638 -226.12877528 239.5673639 -226.0625 224.6875 C-226.05926727 223.37372879 -226.05926727 223.37372879 -226.05596924 222.03341675 C-226.00179164 208.27183705 -225.46442791 194.84284129 -222.75 181.3125 C-222.45996094 179.84514404 -222.45996094 179.84514404 -222.1640625 178.34814453 C-213.93264913 138.09932778 -196.54948914 100.76821253 -168.125 70.86328125 C-165.72897195 68.35608465 -165.72897195 68.35608465 -163.65234375 65.67578125 C-160.74928347 62.06931006 -157.26956437 59.30102256 -153.75 56.3125 C-152.83347656 55.49652344 -151.91695313 54.68054688 -150.97265625 53.83984375 C-142.16606202 46.06722788 -132.67799045 39.56896403 -122.75 33.3125 C-122.15638672 32.93496582 -121.56277344 32.55743164 -120.95117188 32.16845703 C-85.61564354 9.96381128 -41.43606965 -0.2071222 0 0 Z " fill="#EB4610" transform="translate(258.75,31.6875)"/>
<path d="M0 0 C0.69270996 0.16628906 1.38541992 0.33257812 2.09912109 0.50390625 C35.51440329 8.77160494 35.51440329 8.77160494 43 20 C43.47609586 23.65006827 43.21601636 25.56796727 41.5625 28.875 C38.63819915 31.30002997 36.66201258 31.88657279 32.8671875 31.6875 C28.33018954 30.59960948 24.38606007 28.37655544 20.2902832 26.20947266 C5.75388576 18.56476625 -10.62922626 14.78181698 -27 14 C-27.92167969 13.94714844 -28.84335937 13.89429687 -29.79296875 13.83984375 C-64.54919739 12.80569982 -99.94272703 26.23154861 -125.5 49.6875 C-127.35053672 51.44155315 -129.1750931 53.21900063 -131 55 C-132.05380859 55.96099609 -132.05380859 55.96099609 -133.12890625 56.94140625 C-156.13688939 78.46200463 -168.36002905 110.79541868 -169.92553711 141.80126953 C-171.00174037 176.9473124 -160.06698053 210.33875623 -137 237 C-135.97326172 238.22589844 -135.97326172 238.22589844 -134.92578125 239.4765625 C-112.66037098 265.29964156 -79.4056853 280.44370884 -45.7578125 283.5390625 C-10.26134637 286.13201997 24.04546762 275.73709842 51.23242188 252.55224609 C79.41878593 227.79963523 96.91275064 193.15429181 99.83984375 155.6875 C101.27847349 131.54659125 96.6162176 104.4243264 83 84 C82.46355851 80.93381339 82.46302949 78.06682127 83 75 C85.54471222 71.93137644 87.08941981 71.15176337 91 70.5 C94.83383283 71.13897214 96.19049125 72.31488171 99 75 C100.57074977 77.43142461 101.7586716 79.98495311 102.9375 82.625 C103.44845215 83.74890137 103.44845215 83.74890137 103.96972656 84.89550781 C107.60326372 93.07862851 110.59563395 101.37682252 113 110 C113.31759277 111.11810059 113.31759277 111.11810059 113.64160156 112.25878906 C124.10941322 150.99466897 115.98265826 193.55593155 96.29394531 227.83105469 C90.05956929 238.28128045 82.42562164 247.26998452 74 256 C73.21109375 256.85207031 72.4221875 257.70414062 71.609375 258.58203125 C47.1725911 284.27302094 10.15224819 300.17163434 -25.12890625 301.28125 C-39.33033033 301.5390005 -53.12614863 301.16190485 -67 298 C-67.78906738 297.82307617 -68.57813477 297.64615234 -69.39111328 297.46386719 C-97.15074338 291.07435185 -121.27759383 278.58784609 -142 259 C-142.81082031 258.25363281 -143.62164062 257.50726563 -144.45703125 256.73828125 C-170.86534722 231.57760225 -185.88645524 193.21441212 -187 157 C-187.03996094 155.80890625 -187.07992187 154.6178125 -187.12109375 153.390625 C-187.83012286 111.18253922 -173.41210849 71.44711877 -144.14135742 40.80371094 C-108.38630554 4.29253978 -49.81449808 -12.29927826 0 0 Z " fill="#EB4610" transform="translate(291,107)"/>
<path d="M0 0 C2.36497439 1.86708505 3.66030715 3.32061431 5 6 C5.29649248 8.69244206 5.54389455 11.37089169 5.75390625 14.0703125 C5.81907944 14.86654022 5.88425262 15.66276794 5.95140076 16.48312378 C6.15898005 19.03011875 6.36080355 21.57753307 6.5625 24.125 C6.70209556 25.85029108 6.84206479 27.57555196 6.98242188 29.30078125 C7.3259541 33.53351583 7.66432444 37.7666354 8 42 C9.06436279 42.07516846 10.12872559 42.15033691 11.2253418 42.2277832 C15.18666731 42.51101609 19.14653752 42.81142194 23.10620117 43.11694336 C24.81776809 43.24660997 26.5296913 43.37166187 28.24194336 43.49194336 C30.70795903 43.66598977 33.17220246 43.85677951 35.63671875 44.05078125 C36.39836838 44.10091873 37.16001801 44.15105621 37.94474792 44.20271301 C42.35818435 44.56930394 45.4613714 45.2838749 49 48 C50.63023814 51.26047629 50.4673535 53.37801035 50 57 C44.81889142 64.64501016 37.10646685 71.03937414 30.57421875 77.55859375 C29.37817547 78.7553118 28.18228057 79.95217816 26.98652649 81.14918518 C24.49613645 83.64104063 22.00396881 86.13110043 19.51049805 88.61987305 C16.31144734 91.81318977 13.11695746 95.01102568 9.92375469 98.21018887 C7.46266317 100.67488564 4.9992053 103.13720609 2.5350132 105.59880257 C1.3552895 106.77785882 0.17630919 107.95765937 -1.00191689 109.1382122 C-2.64120915 110.78003439 -4.28365553 112.41863361 -5.92700195 114.05639648 C-6.8607515 114.98935043 -7.79450104 115.92230438 -8.75654602 116.88352966 C-12.2488543 120.17816684 -14.21152493 120.16043256 -18.9375 120.1875 C-20.24481583 120.20601517 -21.55213165 120.22453033 -22.89906311 120.24360657 C-26.72056161 120.17785961 -30.19370259 119.59239188 -33.92430115 118.77555847 C-42.14314074 117.19014462 -50.45738361 115.75043548 -58.21770096 119.59344864 C-65.71264826 124.82825722 -71.88670072 131.47435527 -78.06661153 138.15911889 C-80.7649969 141.04481561 -83.54847369 143.84614399 -86.323349 146.65800476 C-91.54763326 151.97694845 -96.69410467 157.36477823 -101.81507248 162.78306216 C-107.65011163 168.94979318 -113.56599068 175.03630813 -119.49080479 181.11664641 C-126.71242559 188.52829237 -133.92332137 195.94938298 -141.06690979 203.43635559 C-141.56954656 203.96280713 -142.07218334 204.48925868 -142.59005153 205.0316633 C-144.9445037 207.4986547 -147.29541045 209.96880788 -149.64149475 212.44377136 C-150.45505432 213.29786591 -151.26861389 214.15196045 -152.10682678 215.03193665 C-153.16867235 216.15166351 -153.16867235 216.15166351 -154.25196934 217.29401112 C-156.95074972 219.9278833 -157.95729066 219.9965557 -161.875 220.3125 C-164.82968653 220.25340627 -165.89058393 220.06564964 -168.5 218.5 C-170.1934315 215.67761416 -170.75176496 213.42286222 -170.57086086 210.12128735 C-168.54111651 202.57886975 -158.9344042 195.97004971 -153.45288086 190.79956055 C-151.52494875 188.96780811 -149.59772359 187.13533716 -147.67137146 185.30192566 C-146.91803317 184.58579938 -146.91803317 184.58579938 -146.14947593 183.85520589 C-139.10278672 177.15042983 -132.13504327 170.36375079 -125.16207027 163.58249187 C-119.49602896 158.07676058 -113.80565926 152.60104358 -108.05297852 147.18579102 C-103.00843827 142.43691057 -98.0188357 137.63730736 -93.0852614 132.77315742 C-90.48124644 130.20943254 -87.85893955 127.67661057 -85.16819572 125.20380211 C-72.24102409 113.71123627 -72.24102409 113.71123627 -67.17874146 97.85708618 C-67.39569462 92.07805158 -68.25167087 86.5160852 -69.43908882 80.86283302 C-70.19702618 76.99439865 -70.40632095 73.24821514 -70.5625 69.3125 C-70.62566406 68.25675781 -70.68882812 67.20101562 -70.75390625 66.11328125 C-68.53289387 56.94153584 -57.16907008 49.02310422 -50.57421875 42.44140625 C-49.37817547 41.2446882 -48.18228057 40.04782184 -46.98652649 38.85081482 C-44.49613645 36.35895937 -42.00396881 33.86889957 -39.51049805 31.38012695 C-36.31144734 28.18681023 -33.11695746 24.98897432 -29.92375469 21.78981113 C-27.46266317 19.32511436 -24.9992053 16.86279391 -22.5350132 14.40119743 C-21.3552895 13.22214118 -20.17630919 12.04234063 -18.99808311 10.8617878 C-17.35879085 9.21996561 -15.71634447 7.58136639 -14.07299805 5.94360352 C-13.1392485 5.01064957 -12.20549896 4.07769562 -11.24345398 3.11647034 C-7.54696472 -0.3707908 -5.04546169 -0.43495359 0 0 Z M-12 28 C-15.7752196 31.75041275 -19.54707561 35.50416503 -23.31591797 39.26098633 C-24.59723567 40.53729004 -25.87945137 41.81269289 -27.16259766 43.0871582 C-29.01183807 44.92420425 -30.85777426 46.76451647 -32.703125 48.60546875 C-33.2730719 49.17025436 -33.8430188 49.73503998 -34.43023682 50.31694031 C-37.51421213 53.40048446 -40.31449718 56.55439998 -43 60 C-45.4721435 62.53553179 -47.86023867 64.89236536 -50.66796875 67.0546875 C-54.0151785 71.28215174 -53.38666745 74.43855269 -52.875 79.625 C-52.813125 80.46417969 -52.75125 81.30335937 -52.6875 82.16796875 C-52.48794646 84.78212012 -52.24807456 87.39002924 -52 90 C-51.81474294 92.04944655 -51.62984084 94.09892521 -51.4453125 96.1484375 C-51.29721963 97.7656566 -51.14891184 99.38285611 -51 101 C-47.16714075 101.33893581 -43.33364909 101.67012787 -39.5 102 C-38.42234375 102.09539062 -37.3446875 102.19078125 -36.234375 102.2890625 C-35.17734375 102.37929687 -34.1203125 102.46953125 -33.03125 102.5625 C-31.58588867 102.68818359 -31.58588867 102.68818359 -30.11132812 102.81640625 C-29.08458984 102.87699219 -28.05785156 102.93757813 -27 103 C-25.13504883 103.29100586 -25.13504883 103.29100586 -23.23242188 103.58789062 C-18.04067086 103.53250538 -15.34098918 100.24993845 -11.8425293 96.74890137 C-10.98699463 95.85207642 -10.13145996 94.95525146 -9.25 94.03125 C-8.35128174 93.12121216 -7.45256348 92.21117432 -6.52661133 91.27355957 C-4.15092182 88.86074022 -1.79408996 86.4321591 0.55535889 83.99395752 C2.96096052 81.50623471 5.3896261 79.04125483 7.81640625 76.57421875 C12.56573668 71.73676112 17.29149459 66.87718541 22 62 C19.52735396 59.52735396 18.58691397 59.68346249 15.16796875 59.47265625 C14.20439453 59.40240234 13.24082031 59.33214844 12.24804688 59.25976562 C10.21960087 59.12902341 8.19095245 59.00138185 6.16210938 58.87695312 C-3.58047785 58.15648198 -3.58047785 58.15648198 -7 55 C-7.890625 52.79296875 -7.890625 52.79296875 -8.25 50.1875 C-8.38921875 49.22328125 -8.5284375 48.2590625 -8.671875 47.265625 C-9.15322396 42.47505674 -9.44552978 37.68078278 -9.65625 32.87109375 C-9.71526186 29.8727165 -9.71526186 29.8727165 -12 28 Z " fill="#EB4611" transform="translate(418,44)"/>
<path d="M0 0 C2.46220488 3.69330732 2.67270703 6.7136488 2 11 C0.5 13.5 0.5 13.5 -2 15 C-7.05299389 15.50529939 -10.85128424 14.84487183 -15.76171875 13.51953125 C-31.37431135 9.89566595 -47.66235459 12.95975915 -61.3828125 20.9765625 C-76.37608417 30.55685869 -85.98786174 44.06740594 -90.58984375 61.1953125 C-93.1985918 79.03418015 -90.34744269 95.58935125 -81 111 C-78.24177821 114.61590207 -75.2626473 117.83693081 -72 121 C-71.43667969 121.57234375 -70.87335938 122.1446875 -70.29296875 122.734375 C-59.43428664 132.98539363 -43.59502693 137.0707345 -29 137.5 C-11.13116493 136.97444603 4.35646222 130.80243323 17 118 C17.56332031 117.45859375 18.12664062 116.9171875 18.70703125 116.359375 C31.06875498 103.44316762 33.49070347 85.99664882 33.30078125 68.953125 C33.14039092 64.37935679 32.21925481 60.40260103 31 56 C30.45018164 52.0873391 30.40541927 48.99096788 32.5 45.5 C36.03309049 43.38014571 38.98117216 43.20452067 43 44 C47.25068154 46.75719883 48.68295325 51.28547595 50 56 C54.41973751 79.45717965 50.15042387 101.68070736 37.3125 121.62109375 C35.64458088 123.87037891 33.88942889 125.9333193 32 128 C31.19949219 128.89203125 30.39898437 129.7840625 29.57421875 130.703125 C20.08010635 140.76056389 9.0382094 147.39211877 -4 152 C-4.84949219 152.3196875 -5.69898438 152.639375 -6.57421875 152.96875 C-26.24707157 159.17216053 -49.36774652 155.55603567 -67.38452148 146.20727539 C-86.62383984 135.7084973 -99.06313622 120.52891531 -106.0703125 99.83984375 C-112.49090324 77.18076866 -109.49788602 54.02105594 -98.625 33.3125 C-95.85241071 28.52111914 -92.57344486 24.21962335 -89 20 C-88.50113281 19.40445313 -88.00226563 18.80890625 -87.48828125 18.1953125 C-68.45885679 -2.60763515 -25.69613597 -15.26394402 0 0 Z " fill="#EB4710" transform="translate(285,181)"/>
</svg>
